<?xml version="1.0" encoding="utf-8"?>
<!-- Generator: Adobe Illustrator 19.0.1, SVG Export Plug-In . SVG Version: 6.00 Build 0)  -->
<svg version="1.1" id="Слой_1" xmlns="http://www.w3.org/2000/svg" xmlns:xlink="http://www.w3.org/1999/xlink" x="0px" y="0px"
	 viewBox="-560.1 744.1 50 50" style="enable-background:new -560.1 744.1 50 50;" xml:space="preserve">
<path d="M-545.4,786.7h-2.1v-2.1c0-0.6-0.5-1-1.1-1s-1,0.5-1,1v2.1c0,1.1,0.9,2.1,2.1,2.1h2.1c0.6,0,1-0.5,1-1.1
	C-544.4,787.2-544.9,786.7-545.4,786.7z"/>
<path d="M-548.5,760.7c0.6,0,1-0.5,1-1v-2.1h2.1c0.6,0,1-0.5,1-1.1s-0.5-1-1-1h-2.1c-1.1,0-2.1,0.9-2.1,2.1v2.1
	C-549.6,760.2-549.1,760.7-548.5,760.7z"/>
<path d="M-512.1,790.9c0,0.6-0.5,1-1,1h-39.6v-39.6h39.6c0.6,0,1,0.5,1,1V790.9z M-554.8,791.9h-2.1c-0.6,0-1-0.5-1-1v-39.1
	c0.6,0.4,1.3,0.6,2.1,0.6h1V791.9z M-555.8,746.1h40.1c-0.4,0.6-0.6,1.4-0.6,2.1s0.2,1.5,0.5,2.1h-40.1c-1.2,0-2.1-0.9-2.1-2.1
	C-557.9,747-557,746.1-555.8,746.1z M-512.9,750.3c-0.7-0.3-1.3-1.2-1.3-2.1c0-0.9,0.5-1.6,1.3-1.9c0.4-0.2,0.7-0.6,0.7-1.1
	c0-0.6-0.5-1.1-1.1-1.1h-42.6c-2.3,0-4.2,1.9-4.2,4.2V791c0,1.7,1.4,3.1,3.1,3.1h43.8c1.7,0,3.1-1.4,3.1-3.1v-37.5
	C-510,751.7-511.3,750.4-512.9,750.3z"/>
<path d="M-517.3,755.5h-2.1c-0.6,0-1,0.5-1,1.1c0,0.6,0.5,1,1,1h2.1v2.1c0,0.6,0.5,1,1.1,1c0.6,0,1-0.5,1-1v-2.1
	C-515.2,756.4-516.1,755.5-517.3,755.5z"/>
<path d="M-516.3,783.6c-0.6,0-1,0.5-1,1v2.1h-2.1c-0.6,0-1,0.5-1,1.1c0,0.6,0.5,1,1,1h2.1c1.1,0,2.1-0.9,2.1-2.1v-2.1
	C-515.2,784-515.7,783.6-516.3,783.6z"/>
<path d="M-521.2,774.5l-4.6,3.8c-0.1,0.1-0.3,0.1-0.5,0l-4.6-3.8c-0.5-0.4-0.8-1.1-0.8-1.7c0-1.4,1.1-2.5,2.5-2.5
	c0.9,0,1.7,0.5,2.2,1.2c0.3,0.5,0.9,0.7,1.4,0.4c0.1-0.1,0.3-0.2,0.4-0.4c0.5-0.8,1.3-1.2,2.2-1.2c1.4,0,2.5,1.1,2.5,2.5
	C-520.4,773.4-520.7,774-521.2,774.5z M-535,778.1c-0.4,0.3-0.9,0.3-1.3,0l-6.7-5.6c-0.9-0.7-1.4-1.8-1.4-2.9c0-2.3,1.9-4.2,4.2-4.2
	c1.5,0,2.9,0.8,3.6,2c0.3,0.5,0.9,0.7,1.4,0.4c0.1-0.1,0.3-0.2,0.4-0.4c0.8-1.3,2.1-2,3.6-2c1.9,0,3.6,1.3,4.1,3.1
	c-0.6-0.3-1.3-0.5-2-0.5c-2.6,0-4.6,2.1-4.6,4.6c0,1.2,0.5,2.4,1.4,3.2L-535,778.1z M-518.3,772.8c0-2.6-2.1-4.6-4.6-4.6
	c-0.7,0-1.4,0.2-2,0.5c-0.5-3-3.1-5.2-6.2-5.2c-1.7,0-3.3,0.7-4.5,1.9c-1.2-1.2-2.8-1.9-4.5-1.9c-3.5,0-6.3,2.8-6.3,6.3
	c0,1.7,0.8,3.4,2.1,4.5l6.7,5.6c1.2,1,2.8,1,4,0l2.9-2.4l3.1,2.6c0.9,0.8,2.2,0.8,3.1,0l4.6-3.8C-518.9,775.3-518.3,774-518.3,772.8
	L-518.3,772.8z"/>
</svg>
