<?xml version="1.0" encoding="utf-8"?>
<!-- Generator: Adobe Illustrator 19.0.1, SVG Export Plug-In . SVG Version: 6.00 Build 0)  -->
<svg version="1.1" id="Слой_1" xmlns="http://www.w3.org/2000/svg" xmlns:xlink="http://www.w3.org/1999/xlink" x="0px" y="0px"
	 viewBox="-583.9 764 26.9 30" style="enable-background:new -583.9 764 26.9 30;" xml:space="preserve">
<path d="M-562.8,779.8c-0.2,2.3-2.2,4.2-4.5,4.2c-2.4,0-4.4-1.8-4.6-4.2l-0.3-4.6c1.3,0.3,2.5,0.4,3.8,0.5c1,1.3,2.5,2.1,4.2,2.1
	c0.5,0,1.1-0.1,1.6-0.2L-562.8,779.8z M-561.6,775.9c-0.2-0.1-0.5-0.1-0.7,0c-0.6,0.3-1.3,0.5-2,0.5c-1.3,0-2.6-0.7-3.3-1.8
	c-0.1-0.2-0.3-0.3-0.5-0.3c-1.6,0-3.2-0.3-4.7-0.6c-0.2,0-0.4,0-0.6,0.1c-0.2,0.1-0.2,0.3-0.2,0.5l0.4,5.5c0.2,3,2.8,5.4,5.8,5.4
	c3.1,0,5.6-2.4,5.8-5.4l0.2-3.4C-561.3,776.3-561.4,776-561.6,775.9L-561.6,775.9z"/>
<path d="M-558.3,776.9c-0.3,4.4-1.5,8-3.6,10.6c-1.2-0.7-2.8-1.1-4.4-1.1h-1.9c-2.7,0-5.2,1.1-6.4,2.9c0,0.1-0.1,0.1-0.1,0.2
	c-2.1-0.1-4.2-0.5-5.9-1.2c-0.9-0.4-1.5-0.7-1.8-1c3.3-0.5,5.8-3.3,5.8-6.7v-6.5c0-0.6,0.1-1.2,0.2-1.8h4.5h0.1
	c0.4,0.4,1,0.6,1.6,0.6c0.4,0,0.8-0.1,1.2-0.3c0.4,0.2,0.9,0.3,1.4,0.3c0.6,0,1.1-0.2,1.6-0.5c0.9,0.7,2.2,0.6,3-0.2c0,0,0,0,0.1,0
	h4.4c0.1,0.6,0.2,1.2,0.2,1.8L-558.3,776.9L-558.3,776.9z M-560.4,792.7h-13.5c-0.3-1.1,0.1-2,0.5-2.6c0.2-0.3,0.5-0.6,0.8-0.9
	c1.5,1.1,3.4,1.6,5.3,1.6c0.8,0,1.7-0.1,2.5-0.3c0.3-0.1,0.5-0.4,0.5-0.8l0,0c-0.1-0.3-0.4-0.5-0.8-0.4c-0.7,0.2-1.4,0.3-2.1,0.3
	c-1.5,0-2.9-0.4-4.1-1.1c1-0.5,2.2-0.8,3.4-0.8h1.7c2.2,0,4.2,0.9,5.2,2.2C-560.6,790.5-560.1,791.5-560.4,792.7L-560.4,792.7z
	 M-563.5,770.8c0,0.6-0.5,1-1,1c-0.3,0-0.6-0.2-0.8-0.4c-0.1-0.2-0.3-0.3-0.5-0.3c-0.2,0-0.3,0.1-0.5,0.2c-0.3,0.3-0.7,0.5-1.2,0.5
	c-0.4,0-0.7-0.1-1-0.3c-0.3-0.2-0.6-0.2-0.8,0c-0.2,0.2-0.5,0.3-0.7,0.3c-0.6,0-1-0.5-1-1c0-0.6,0.5-1,1-1c0.1,0,0.2,0,0.4,0.1
	c0.3,0.1,0.6,0,0.8-0.3c0.3-0.5,0.8-0.9,1.4-0.9c0.6,0,1.2,0.4,1.5,1c0.1,0.2,0.2,0.3,0.4,0.4s0.4,0,0.5-0.1
	c0.2-0.1,0.4-0.2,0.6-0.2C-564,769.8-563.5,770.2-563.5,770.8L-563.5,770.8z M-567.4,765.2c3.9,0,7.3,2.5,8.5,5.9h-3.5
	c0-0.1,0-0.3,0-0.4c0-1.2-1-2.3-2.3-2.3c-0.2,0-0.4,0-0.6,0.1c-0.5-0.7-1.4-1.2-2.3-1.2c-0.9,0-1.7,0.4-2.3,1.1c-0.1,0-0.2,0-0.3,0
	c-1.3,0-2.3,1-2.3,2.3c0,0.1,0,0.3,0,0.4h-3.6C-574.7,767.7-571.3,765.2-567.4,765.2z M-567.4,764c-4.8,0-8.8,3.2-10,7.6
	c-0.2,0.8-0.3,1.7-0.3,2.6v6.5c0,3-2.5,5.5-5.6,5.5c-0.4,0-0.6,0.3-0.6,0.6c0,1.3,1.9,2.3,3,2.7c1.7,0.7,3.7,1.1,5.8,1.3
	c-0.3,0.9-0.2,1.9,0.2,2.8c0.1,0.2,0.3,0.4,0.6,0.4h14.4c0.3,0,0.5-0.2,0.6-0.5l0.1-0.4c0.4-1.3,0.1-2.7-0.8-3.9
	c-0.2-0.3-0.5-0.6-0.8-0.9c2.3-2.8,3.5-6.7,3.8-11.4l0,0v-2.7C-557,768.6-561.7,764-567.4,764z"/>
<path d="M-568.7,776.4c-0.3-0.1-0.7,0-0.8,0.3c0,0-0.1,0.1-0.3,0.1c-0.2,0-0.3-0.1-0.3-0.1c-0.2-0.3-0.5-0.4-0.8-0.3
	c-0.3,0.1-0.4,0.5-0.3,0.8l0,0c0.2,0.5,0.8,0.8,1.4,0.8s1.2-0.3,1.4-0.8C-568.3,776.9-568.4,776.6-568.7,776.4L-568.7,776.4z"/>
</svg>
