<?xml version="1.0" encoding="utf-8"?>
<!-- Generator: Adobe Illustrator 19.0.1, SVG Export Plug-In . SVG Version: 6.00 Build 0)  -->
<svg version="1.1" id="Слой_1" xmlns="http://www.w3.org/2000/svg" xmlns:xlink="http://www.w3.org/1999/xlink" x="0px" y="0px"
	 viewBox="-287 382 36 29" style="enable-background:new -287 382 36 29;" xml:space="preserve">
<path d="M-267.2,396.8h8.4v4.1h-8.4V396.8z M-267.8,402.1h9.6c0.4,0,0.6-0.2,0.6-0.6v-5.3c0-0.4-0.2-0.6-0.6-0.6h-9.6
	c-0.4,0-0.6,0.2-0.6,0.6v5.3C-268.4,401.8-268.2,402.1-267.8,402.1L-267.8,402.1z"/>
<g>
	<path d="M-284,394.4h4.8c0.4,0,0.6-0.2,0.6-0.6c0-0.4-0.2-0.6-0.6-0.6h-4.8c-0.4,0-0.6,0.2-0.6,0.6
		C-284.6,394.2-284.4,394.4-284,394.4L-284,394.4z"/>
</g>
<g>
	<path d="M-276.8,394.4h4.8c0.4,0,0.6-0.2,0.6-0.6c0-0.4-0.2-0.6-0.6-0.6h-4.8c-0.4,0-0.6,0.2-0.6,0.6
		C-277.4,394.2-277.2,394.4-276.8,394.4z"/>
</g>
<g>
	<path d="M-284,396.8h7.8c0.4,0,0.6-0.2,0.6-0.6c0-0.4-0.2-0.6-0.6-0.6h-7.8c-0.4,0-0.6,0.2-0.6,0.6
		C-284.6,396.5-284.4,396.8-284,396.8z"/>
</g>
<path d="M-272,395.6h-1.8c-0.4,0-0.6,0.2-0.6,0.6c0,0.4,0.2,0.6,0.6,0.6h1.8c0.4,0,0.6-0.2,0.6-0.6
	C-271.4,395.8-271.7,395.6-272,395.6L-272,395.6z"/>
<path d="M-252.3,389.7l-1.8,19c-0.1,0.7-0.7,1.1-1.3,1.1l-27.6-3.1c-0.6-0.1-1-0.5-1.1-1.1h27c1.3,0,2.4-1.1,2.4-2.4v-14.9l1.4,0.1
	c0.3,0,0.6,0.2,0.8,0.4C-252.3,389.1-252.2,389.4-252.3,389.7z M-285.8,403.3v-12.4h29.9v12.4c0,0.6-0.5,1.2-1.2,1.2h-27.5
	C-285.3,404.4-285.8,403.9-285.8,403.3z M-284.6,383.2h27.5c0.7,0,1.2,0.5,1.2,1.2v0.6h-29.9v-0.6
	C-285.8,383.7-285.3,383.2-284.6,383.2L-284.6,383.2z M-285.8,386.1h29.9v3.6h-29.9V386.1z M-251.6,388.3c-0.4-0.5-1-0.8-1.6-0.9
	l-1.4-0.2v-2.8c0-1.3-1.1-2.4-2.4-2.4h-27.5c-1.3,0-2.4,1.1-2.4,2.4v18.9c0,1.1,0.7,2,1.7,2.3c0,1.2,0.9,2.2,2.1,2.3l27.7,3.1h0.2
	c1.2,0,2.3-0.9,2.4-2l1.8-19C-251,389.4-251.2,388.7-251.6,388.3z"/>
</svg>
