<?xml version="1.0" encoding="utf-8"?>
<!-- Generator: Adobe Illustrator 19.0.1, SVG Export Plug-In . SVG Version: 6.00 Build 0)  -->
<svg version="1.1" id="Слой_1" xmlns="http://www.w3.org/2000/svg" xmlns:xlink="http://www.w3.org/1999/xlink" x="0px" y="0px"
	 viewBox="-574 772 36 21" style="enable-background:new -574 772 36 21;" xml:space="preserve">
<path d="M-556,776.2c0.4,0,0.7-0.3,0.7-0.7s-0.3-0.7-0.7-0.7s-0.7,0.3-0.7,0.7S-556.4,776.2-556,776.2z"/>
<path d="M-539.4,790.9c0,0.4-0.3,0.7-0.7,0.7h-3.5c0-2.3,1.9-4.2,4.2-4.2L-539.4,790.9L-539.4,790.9z M-567,791.6
	c0-3.1-2.5-5.6-5.6-5.6v-7c3.1,0,5.6-2.5,5.6-5.6h21.9c0,3.1,2.5,5.6,5.6,5.6v7c-3.1,0-5.6,2.5-5.6,5.6H-567z M-572.6,790.9v-3.5
	c2.3,0,4.2,1.9,4.2,4.2h-3.5C-572.3,791.6-572.6,791.3-572.6,790.9z M-572.6,774.1c0-0.4,0.3-0.7,0.7-0.7h3.5c0,2.3-1.9,4.2-4.2,4.2
	V774.1z M-539.4,774.1v3.5c-2.3,0-4.2-1.9-4.2-4.2h3.5C-539.7,773.4-539.4,773.7-539.4,774.1z M-540.1,772h-31.8
	c-1.2,0-2.1,0.9-2.1,2.1v16.8c0,1.2,0.9,2.1,2.1,2.1h31.8c1.2,0,2.1-0.9,2.1-2.1v-16.8C-538,772.9-538.9,772-540.1,772z"/>
<path d="M-558.1,781.1c0,1.2,0.9,2.1,2.1,2.1c0.4,0,0.7,0.3,0.7,0.7s-0.3,0.7-0.7,0.7c-0.3,0-0.6-0.2-0.9-0.5
	c-0.3-0.3-0.7-0.3-1-0.1c-0.3,0.2-0.3,0.7-0.1,1l0,0c0.4,0.4,0.8,0.8,1.3,0.9v0.8c0,0.4,0.3,0.7,0.7,0.7s0.7-0.3,0.7-0.7v-0.8
	c0.8-0.3,1.4-1.1,1.4-2c0-1.2-0.9-2.1-2.1-2.1c-0.4,0-0.7-0.3-0.7-0.7c0-0.4,0.3-0.7,0.7-0.7c0.3,0,0.5,0.1,0.8,0.4s0.7,0.3,1,0
	s0.3-0.7,0-1l0,0c-0.3-0.3-0.6-0.5-1-0.6v-0.8c0-0.4-0.3-0.7-0.7-0.7s-0.7,0.3-0.7,0.7v0.8C-557.5,779.4-558.1,780.2-558.1,781.1z"
	/>
<path d="M-553,775.4c-0.4-0.2-0.8,0-0.9,0.4c-0.2,0.4,0,0.8,0.4,0.9c2.3,1,3.8,3.3,3.8,5.8c0,3.5-2.8,6.3-6.3,6.3s-6.3-2.8-6.3-6.3
	c0-2.5,1.5-4.8,3.8-5.8c0.4-0.2,0.5-0.6,0.4-0.9l0,0c-0.2-0.4-0.6-0.5-0.9-0.4c-2.8,1.2-4.7,4-4.7,7.1c0,4.2,3.5,7.7,7.7,7.7
	c4.3,0,7.7-3.5,7.7-7.7C-548.3,779.4-550.1,776.6-553,775.4z"/>
<path d="M-542.2,782.5c0-0.4-0.3-0.7-0.7-0.7h-3.2c-0.4,0-0.7,0.3-0.7,0.7s0.3,0.7,0.7,0.7h3.2
	C-542.5,783.2-542.2,782.9-542.2,782.5L-542.2,782.5z"/>
<path d="M-565.8,781.8h-3.2c-0.4,0-0.7,0.3-0.7,0.7s0.3,0.7,0.7,0.7h3.2c0.4,0,0.7-0.3,0.7-0.7S-565.5,781.8-565.8,781.8
	L-565.8,781.8z"/>
</svg>
