<?xml version="1.0" encoding="utf-8"?>
<!-- Generator: Adobe Illustrator 19.0.1, SVG Export Plug-In . SVG Version: 6.00 Build 0)  -->
<svg version="1.1" id="Слой_1" xmlns="http://www.w3.org/2000/svg" xmlns:xlink="http://www.w3.org/1999/xlink" x="0px" y="0px"
	 viewBox="-280 372 50 50" style="enable-background:new -280 372 50 50;" xml:space="preserve">
<path d="M-239.6,386.5c0.5,0,1-0.4,1-1v-10.6c0-1.6-1.3-2.9-2.9-2.9h-35.5c-1.6,0-2.9,1.3-2.9,2.9v44.1c0,1.6,1.3,2.9,2.9,2.9h35.5
	c1.6,0,2.9-1.3,2.9-2.9v-7.2c0-0.5-0.4-1-1-1c-0.5,0-1,0.4-1,1v7.2c0,0.5-0.4,1-1,1h-35.5c-0.5,0-1-0.4-1-1v-44.1c0-0.5,0.4-1,1-1
	h35.5c0.5,0,1,0.4,1,1v10.6C-240.5,386.1-240.1,386.5-239.6,386.5z"/>
<path d="M-253.6,390.4c-0.7-1.1-1.7-1.9-2.9-2.4c0.5-0.6,0.7-1.3,0.7-2.1v-0.6c0-1.9-1.6-3.5-3.5-3.5c-1.9,0-3.5,1.6-3.5,3.5v0.6
	c0,0.8,0.3,1.6,0.7,2.1c-1.2,0.5-2.2,1.4-2.9,2.4c-0.9-1.2-1.4-2.7-1.4-4.2c0-3.9,3.2-7,7-7c3.9,0,7,3.2,7,7
	C-252.3,387.8-252.7,389.2-253.6,390.4z M-260.9,385.9v-0.6c0-0.9,0.7-1.6,1.6-1.6s1.6,0.7,1.6,1.6v0.6c0,0.9-0.7,1.6-1.6,1.6
	C-260.2,387.4-260.9,386.7-260.9,385.9L-260.9,385.9z M-259.3,393.3c-1.5,0-3-0.5-4.2-1.4c0.9-1.5,2.5-2.5,4.2-2.5
	c1.8,0,3.4,1,4.2,2.5C-256.3,392.8-257.8,393.3-259.3,393.3z M-259.3,377.3c-5,0-9,4-9,9c0,2.5,1,4.8,2.8,6.5
	c1.7,1.6,3.9,2.5,6.2,2.5c2.3,0,4.5-0.9,6.2-2.5c1.8-1.7,2.8-4.1,2.8-6.5C-250.3,381.3-254.3,377.3-259.3,377.3z"/>
<path d="M-254,414.8h-5.3c-0.5,0-1,0.5-0.9,1c0,0.5,0.4,0.9,0.9,0.9h5.3c0.5,0,1-0.5,0.9-1C-253.1,415.2-253.5,414.8-254,414.8z"/>
<path d="M-254,409.3h-13.9c-0.5,0-1,0.5-0.9,1c0,0.5,0.4,0.9,0.9,0.9h13.9c0.5,0,1-0.5,0.9-1C-253.1,409.7-253.5,409.3-254,409.3z"
	/>
<path d="M-254,403.8h-13.9c-0.5,0-1,0.5-0.9,1c0,0.5,0.4,0.9,0.9,0.9h13.9c0.5,0,1-0.5,0.9-1C-253.1,404.3-253.5,403.9-254,403.8z"
	/>
<path d="M-271.4,398.7c-0.2-0.2-0.4-0.3-0.7-0.3c-0.3,0-0.5,0.1-0.7,0.3c-0.2,0.2-0.3,0.4-0.3,0.7c0,0.3,0.1,0.5,0.3,0.7
	c0.2,0.2,0.4,0.3,0.7,0.3c0.3,0,0.5-0.1,0.7-0.3c0.2-0.2,0.3-0.4,0.3-0.7C-271.1,399.1-271.2,398.8-271.4,398.7L-271.4,398.7z"/>
<path d="M-271.4,404.1c-0.2-0.2-0.4-0.3-0.7-0.3c-0.3,0-0.5,0.1-0.7,0.3c-0.2,0.2-0.3,0.4-0.3,0.7c0,0.3,0.1,0.5,0.3,0.7
	c0.2,0.2,0.4,0.3,0.7,0.3c0.3,0,0.5-0.1,0.7-0.3c0.2-0.2,0.3-0.4,0.3-0.7C-271.1,404.6-271.2,404.3-271.4,404.1L-271.4,404.1z"/>
<path d="M-271.4,409.6c-0.2-0.2-0.4-0.3-0.7-0.3c-0.3,0-0.5,0.1-0.7,0.3c-0.2,0.2-0.3,0.4-0.3,0.7c0,0.3,0.1,0.5,0.3,0.7
	c0.2,0.2,0.4,0.3,0.7,0.3c0.3,0,0.5-0.1,0.7-0.3c0.2-0.2,0.3-0.4,0.3-0.7C-271.1,410-271.2,409.8-271.4,409.6L-271.4,409.6z"/>
<path d="M-254,398.4h-13.9c-0.5,0-1,0.5-0.9,1c0,0.5,0.4,0.9,0.9,0.9h13.9c0.5,0,1-0.5,0.9-1C-253.1,398.8-253.5,398.4-254,398.4z"
	/>
<path d="M-232.2,389.4l-1,1.7l-3.7-2.1l1-1.7c0.3-0.5,0.8-0.9,1.3-1c0.6-0.1,1.1-0.1,1.6,0.2c0.5,0.3,0.9,0.8,1,1.3
	C-231.9,388.3-231.9,388.9-232.2,389.4L-232.2,389.4z M-244,409.8l-3.7-2.1l9.9-17.1l3.7,2.1L-244,409.8z M-248.7,413.6l0.5-4
	l2.8,1.6L-248.7,413.6z M-232.1,384.7c-0.9-0.5-2.1-0.7-3.1-0.4c-1.1,0.3-1.9,1-2.5,1.9l-12.3,21.3c-0.1,0.1-0.1,0.2-0.1,0.4
	l-0.9,7.7c-0.1,0.5,0.3,1,0.9,1.1c0.2,0,0.5,0,0.7-0.2l6.3-4.6c0.1-0.1,0.2-0.2,0.3-0.3l12.3-21.3
	C-229.4,388.4-230.1,385.9-232.1,384.7z"/>
</svg>
