<?xml version="1.0" encoding="utf-8"?>
<!-- Generator: Adobe Illustrator 19.0.1, SVG Export Plug-In . SVG Version: 6.00 Build 0)  -->
<svg version="1.1" id="Слой_1" xmlns="http://www.w3.org/2000/svg" xmlns:xlink="http://www.w3.org/1999/xlink" x="0px" y="0px"
	 viewBox="-275 369 61 56" style="enable-background:new -275 369 61 56;" xml:space="preserve">
<path d="M-261.9,369h42.1c2.8,0.7,5.1,2.9,4.8,5.9c0.1,14.7,0.1,29.4,0,44.1c0.3,2.6-1.4,4.8-3.6,6h-44.6c-3.2-1.3-3.8-4.7-4-7.7
	c-3.3-0.2-6.5-1.6-7.8-4.9v-2.6c1-3.6,4.6-4.9,8-5.2c0-5.1,0-10.2,0-15.3c-3.4-0.2-6.7-1.5-8-4.9v-2.6c1-3.5,4.4-4.9,7.8-5.1
	c0.3-1.7,0.4-3.4,1-5C-265.5,370-263.5,369.6-261.9,369 M-263.2,376.8c2.2,0.4,4.8,0.2,6.4,2c2.4,2.2,2.4,6.3,0,8.4
	c-1.6,1.8-4.1,1.6-6.2,2c0,5.2,0,10.4,0,15.6c2.1,0.4,4.7,0.3,6.2,2.1c2.3,2.2,2.3,6.2-0.1,8.3c-1.6,1.8-4.2,1.7-6.4,2
	c0.4,1.4-0.2,4.1,2.1,3.7c13.4,0.1,26.8,0.1,40.2,0c2.4,0.5,1.7-2.4,1.9-3.9c-0.1-14,0.1-28.1-0.1-42.1c0.4-2.4-2.5-1.7-3.9-1.9
	c-12.7,0.1-25.4-0.1-38.1,0.1C-263.4,372.7-262.8,375.4-263.2,376.8 M-269.8,381.3c-1.6,0.2-1.6,3.3,0,3.4c3.4,0.5,7,0.6,10.3-0.2
	c0.5-1,0.5-2,0-3C-262.8,380.6-266.4,380.8-269.8,381.3 M-269.8,409.3c-1.6,0.3-1.3,2.1-0.8,3.2c3.3,0.9,7,0.7,10.4,0.3
	c1.5-0.2,1.1-2.3,0.7-3.3C-262.8,408.6-266.4,408.8-269.8,409.3z"/>
<path d="M-245.9,387.2c2.5-5.1,10.4-5.5,13.3-0.6c3,4.2,0.8,10.3-3.7,12.4c4-0.4,9.1,0.2,10.7,4.5c0.8,3.2,1.3,6.9-0.2,9.9
	c-6.6,1.1,0-10.1-6.1-10.3c-4.4-0.2-8.8-0.2-13.2-0.1c-1.5-0.1-3.2,0.6-3.7,2.2c-0.4,2.8-0.3,5.6-0.7,8.4c-1.1,0-2.2,0-3.3,0
	c-0.4-4.1-1.3-9.2,1.8-12.4c2.3-2.5,5.9-2.2,8.9-2.2C-246.1,396.9-248.5,391.4-245.9,387.2 M-240.7,387.4c-2.7,1.2-3.2,5.4-1,7.2
	c2.3,1.8,6.3,0.2,6.4-2.8C-234.6,388.9-237.9,386-240.7,387.4z"/>
</svg>
