<?xml version="1.0" encoding="utf-8"?>
<!-- Generator: Adobe Illustrator 19.0.1, SVG Export Plug-In . SVG Version: 6.00 Build 0)  -->
<svg version="1.1" id="Слой_1" xmlns="http://www.w3.org/2000/svg" xmlns:xlink="http://www.w3.org/1999/xlink" x="0px" y="0px"
	 viewBox="-558.1 738 52.1 56" style="enable-background:new -558.1 738 52.1 56;" xml:space="preserve">
<path d="M-552.5,738h12.1c2.9,0.3,5.1,3,4.8,5.9c0,14.7,0,29.4,0,44.1c0.4,3-1.9,5.7-4.9,6h-12.3c-2.9-0.2-5.3-2.5-5.3-5.5v-45
	C-558,740.4-555.5,738-552.5,738 M-553.9,743c-0.1,15.4-0.1,30.8,0,46.1c0.2,0.2,0.7,0.6,0.9,0.8c4.4,0.3,8.9-0.1,13.3,0.1
	c0.7-6.6,0.1-13.4,0.3-20c-0.2-9.3,0.4-18.7-0.3-28c-4.4,0.1-8.9-0.2-13.3,0.1C-553.3,742.3-553.7,742.8-553.9,743z"/>
<path d="M-523.6,738h12.2c3,0,5.5,2.5,5.4,5.5v13.1c-0.3,2.3-1.6,4.8-4.2,5.1c-4.3,0.5-8.6,0.3-13,0.2c-2.8,0.2-5.3-2.2-5.3-5
	c-0.1-4.6-0.1-9.3,0-13.9C-528.5,740.4-526.2,738.3-523.6,738 M-524.4,742c-0.2,5.3-0.2,10.6,0,15.9c4.5,0,9,0.2,13.5,0
	c0.2-0.2,0.6-0.7,0.8-0.9c0.2-4.7,0.2-9.4,0-14c-0.2-0.2-0.6-0.7-0.8-0.9C-515.4,741.9-519.9,742-524.4,742z"/>
<path d="M-528.5,775c0-2.4,2-4.8,4.5-4.9c4.3-0.3,8.6-0.2,12.9,0c2.9,0,4.9,2.7,5,5.4v13.1c-0.2,2.9-2.4,5.2-5.4,5.3h-12.3
	c-2.5-0.4-4.8-2.4-4.8-5.1C-528.6,784.3-528.6,779.7-528.5,775 M-524.4,774c-0.2,5.3-0.2,10.6,0,15.9c4.5,0,9,0.2,13.5,0
	c0.2-0.2,0.6-0.6,0.8-0.9c-0.1-4.9,0.6-9.9-0.3-14.7C-514.9,773.5-519.8,774.2-524.4,774z"/>
</svg>
