<?xml version="1.0" encoding="utf-8"?>
<!-- Generator: Adobe Illustrator 19.0.1, SVG Export Plug-In . SVG Version: 6.00 Build 0)  -->
<svg version="1.1" id="Слой_1" xmlns="http://www.w3.org/2000/svg" xmlns:xlink="http://www.w3.org/1999/xlink" x="0px" y="0px"
	 viewBox="-590 774 21 19.8" style="enable-background:new -590 774 21 19.8;" xml:space="preserve">
<path d="M-573.5,781.3c-0.3,0-0.5,0.2-0.5,0.5l0,0v9.3c0,1-0.8,1.8-1.8,1.8h-11.4c-1,0-1.8-0.8-1.8-1.8v-11.2c0-1,0.8-1.8,1.8-1.8
	h11.4c0.3,0,0.5-0.2,0.5-0.5s-0.2-0.5-0.5-0.5l0,0h-11.4c-1.6,0-2.8,1.3-2.8,2.8v11.2c0,1.6,1.3,2.8,2.9,2.8h11.4
	c1.6,0,2.8-1.3,2.8-2.8v-9.3C-572.9,781.5-573.2,781.3-573.5,781.3L-573.5,781.3z"/>
<path d="M-570.2,776l-8.9,8.8l0,0l-1.4,0.6l0.6-1.4l0,0l8.9-8.8c0.2-0.2,0.6-0.2,0.8,0C-570,775.4-570,775.8-570.2,776L-570.2,776
	L-570.2,776z M-569.5,774.5c-0.6-0.6-1.6-0.6-2.3,0l-8.9,8.8c-0.1,0.1-0.1,0.1-0.2,0.2l-1.2,2.7c-0.1,0.2,0,0.4,0.1,0.6
	c0.2,0.2,0.4,0.2,0.6,0.1l2.8-1.2c0.1,0,0.2-0.2,0.2-0.2l8.9-8.8c0.3-0.3,0.5-0.7,0.5-1.1C-569,775.2-569.2,774.8-569.5,774.5
	L-569.5,774.5z"/>
</svg>
