<?xml version="1.0" encoding="utf-8"?>
<!-- Generator: Adobe Illustrator 19.0.1, SVG Export Plug-In . SVG Version: 6.00 Build 0)  -->
<svg version="1.1" id="Слой_1" xmlns="http://www.w3.org/2000/svg" xmlns:xlink="http://www.w3.org/1999/xlink" x="0px" y="0px"
	 viewBox="-560 743.9 49.9 50.1" style="enable-background:new -560 743.9 49.9 50.1;" xml:space="preserve">
<path d="M-512.1,791.9h-45.8v-21l15.1,10.1c0,1.3,0.6,2.5,1.6,3.3l4.7,3.9c0.9,0.8,2.3,0.8,3.2,0l4.6-3.9c1-0.8,1.6-2,1.6-3.3
	l15.1-10.1v21H-512.1z M-555.8,767.1v2.7l-1.5-1L-555.8,767.1z M-553.8,762.8h31.3v3.1h-26c-1.1,0-2.1,0.9-2.1,2.1v5.3l-3.1-2.1
	L-553.8,762.8L-553.8,762.8z M-529.3,781c0,0.7-0.3,1.3-0.8,1.8l-4.6,3.9c-0.1,0.1-0.4,0.1-0.5,0l-4.6-3.9c-0.5-0.4-0.8-1.1-0.8-1.8
	c0-1.4,1.2-2.6,2.6-2.6c0.9,0,1.8,0.5,2.2,1.3c0.3,0.5,0.9,0.7,1.4,0.4c0.1-0.1,0.3-0.2,0.4-0.4c0.5-0.8,1.3-1.3,2.2-1.3
	C-530.4,778.4-529.3,779.5-529.3,781L-529.3,781z M-531.9,776.3c-1.2,0-2.3,0.4-3.1,1.2c-0.9-0.8-2-1.2-3.1-1.2
	c-1.8,0-3.4,1-4.2,2.6l-6.2-4.2V768h31.3v4l-10.4,6.9C-528.5,777.3-530.1,776.3-531.9,776.3z M-537.7,747.3c0.7-0.8,1.7-1.2,2.7-1.2
	s2,0.4,2.7,1.2l19.7,21.5l-2.6,1.7V768c0-1.1-0.9-2.1-2.1-2.1h-3.1v-3.1c0-1.1-0.9-2.1-2.1-2.1h-27.4L-537.7,747.3z M-510.2,768.3
	L-510.2,768.3C-510.3,768.3-510.3,768.3-510.2,768.3l-20.5-22.5c-1.1-1.2-2.6-1.9-4.3-1.9c-1.6,0-3.2,0.7-4.3,1.9l-13.5,14.8h-1
	c-1.1,0-2.1,0.9-2.1,2.1v1.3l-0.1,0.1l-3.8,4.2l0,0l0,0c-0.2,0.2-0.2,0.4-0.2,0.7v24c0,0.6,0.5,1,1,1h47.9c0.6,0,1-0.5,1-1v-24
	C-510,768.8-510.1,768.5-510.2,768.3L-510.2,768.3z"/>
</svg>
