<?xml version="1.0" encoding="utf-8"?>
<!-- Generator: Adobe Illustrator 19.0.1, SVG Export Plug-In . SVG Version: 6.00 Build 0)  -->
<svg version="1.1" id="Слой_1" xmlns="http://www.w3.org/2000/svg" xmlns:xlink="http://www.w3.org/1999/xlink" x="0px" y="0px"
	 viewBox="-585.9 758 23.9 35" style="enable-background:new -585.9 758 23.9 35;" xml:space="preserve">
<path d="M-569.3,791.2l-2.8-1.6V789l2.8-1.6C-569,788.6-569,789.9-569.3,791.2z M-573.7,789.9C-573.7,790-573.7,790-573.7,789.9
	l-0.5,0.1c-0.1,0-0.1,0-0.1-0.1l0,0v-1.2c0-0.1,0-0.1,0.1-0.1h0.4c0.1,0,0.1,0,0.1,0.1V789.9z M-578.7,791.2c-0.3-1.3-0.3-2.6,0-3.9
	l2.8,1.6v0.6L-578.7,791.2z M-568.7,785.6c-0.3-0.1-0.7-0.1-1,0.1l-3,1.8c-0.3-0.3-0.7-0.5-1.1-0.5h-0.4c-0.4,0-0.8,0.2-1.1,0.5
	l-3-1.8c-0.3-0.2-0.7-0.2-1-0.1c-0.3,0.1-0.6,0.4-0.7,0.7c-0.6,1.9-0.6,4,0,5.9c0.2,0.5,0.6,0.8,1.1,0.8c0.2,0,0.4-0.1,0.6-0.2
	l3-1.8c0.3,0.3,0.7,0.5,1.1,0.5h0.4c0.4,0,0.8-0.2,1.1-0.5l3,1.8c0.3,0.2,0.7,0.2,1,0.1c0.3-0.1,0.6-0.4,0.7-0.7
	c0.6-1.9,0.6-4,0-5.9C-568.1,786-568.3,785.7-568.7,785.6L-568.7,785.6z"/>
<path d="M-578,773.7c-0.4,0-0.8,0.4-0.8,0.8l0,0v1.3c0,0.4,0.3,0.8,0.8,0.8c0.4,0,0.8-0.4,0.8-0.8l0,0v-1.3
	C-577.2,774.1-577.6,773.7-578,773.7z"/>
<path d="M-572.6,779.6c-0.4,0.4-0.9,0.6-1.4,0.6s-1.1-0.2-1.4-0.6c-0.3-0.3-0.8-0.3-1.1,0l0,0c-0.3,0.3-0.3,0.8,0,1.1
	c0.7,0.7,1.6,1.1,2.5,1.1c1,0,1.9-0.4,2.5-1.1c0.3-0.3,0.3-0.8,0-1.1C-571.8,779.3-572.2,779.3-572.6,779.6L-572.6,779.6z"/>
<path d="M-570,773.7c-0.4,0-0.8,0.4-0.8,0.8l0,0v1.3c0,0.4,0.3,0.8,0.8,0.8c0.4,0,0.8-0.4,0.8-0.8v-1.3
	C-569.2,774.1-569.6,773.7-570,773.7z"/>
<path d="M-564.7,778.3c0.1-0.6,0.2-1.1,0.2-1.7v-1.5c0.1-0.1,0.1-0.1,0.2-0.2c0.4,0.4,0.7,1,0.7,1.6
	C-563.6,777.2-564,777.9-564.7,778.3z M-574,784.6c-2.1,0-4.1-0.8-5.6-2.3s-2.3-3.5-2.3-5.7v-5.2c1.9-0.3,3.7-1.2,5-2.6
	c2.6,3.2,6.9,4.4,10.8,3.2v4.6C-566.1,781-569.6,784.6-574,784.6L-574,784.6z M-584.4,776.5c0-0.6,0.3-1.2,0.7-1.6
	c0.1,0.1,0.1,0.1,0.2,0.2v1.5c0,0.6,0.1,1.2,0.2,1.7C-584,777.9-584.4,777.2-584.4,776.5z M-583.9,767.6c0-4.4,3.6-8,8-8h3.9
	c4.4,0,7.9,3.6,7.9,8v2.9c0,0.7-0.1,1.3-0.4,1.9v-1.6c0-0.2-0.1-0.4-0.2-0.6c-0.2-0.2-0.6-0.3-0.9-0.2c-1.1,0.5-2.3,0.8-3.6,0.8
	c-2.5,0-4.9-1.1-6.5-3c-0.6-0.7-1-1.6-1-2.5c0-0.4-0.4-0.8-0.8-0.7l0,0c-0.4,0-0.8,0.4-0.7,0.8l0,0c0.1,0.8,0.3,1.5,0.5,2
	c-1.3,1.5-3.1,2.3-5,2.5c-0.4,0-0.7,0.4-0.7,0.8v1.7c-0.3-0.6-0.4-1.2-0.4-1.9L-583.9,767.6L-583.9,767.6z M-562,776.4
	c0-1.1-0.5-2.2-1.3-2.8c0.5-0.9,0.8-2,0.8-3.1v-2.9c0-5.3-4.3-9.6-9.5-9.6h-3.9c-5.2,0-9.5,4.3-9.5,9.6v2.9c0,1.1,0.3,2.2,0.8,3.1
	c-0.8,0.7-1.3,1.7-1.3,2.8c0,1.9,1.4,3.4,3.1,3.7c0.5,1.2,1.2,2.3,2.1,3.2c1.8,1.8,4.2,2.8,6.7,2.8c4,0,7.4-2.5,8.8-6
	C-563.4,779.9-562,778.3-562,776.4L-562,776.4z"/>
</svg>
