<?xml version="1.0" encoding="UTF-8"?>
<svg width="16px" height="16px" viewBox="0 0 16 16" version="1.1" xmlns="http://www.w3.org/2000/svg" xmlns:xlink="http://www.w3.org/1999/xlink">
    <!-- Generator: Sketch 55.2 (78181) - https://sketchapp.com -->
    <title>noun_help_1459310</title>
    <desc>Created with Sketch.</desc>
    <g id="Page-1" stroke="none" stroke-width="1">
        <g id="View-User-" transform="translate(-261.000000, -365.000000)">
            <g id="noun_help_1459310" transform="translate(261.000000, 365.000000)">
                <path d="M8,0.145454545 C3.66205433,0.145454545 0.145454545,3.66205433 0.145454545,8 C0.145454545,12.3379457 3.66205433,15.8545455 8,15.8545455 C12.3379457,15.8545455 15.8545455,12.3379457 15.8545455,8 C15.8545455,5.91684503 15.0270154,3.91901065 13.5540024,2.44599765 C12.0809893,0.972984637 10.083155,0.145454545 8,0.145454545 L8,0.145454545 Z M8.77575758,11.7090909 L7.2969697,11.7090909 L7.2969697,10.2545455 L8.8,10.2545455 L8.77575758,11.7090909 Z M10.2060606,7.51515152 C9.99500311,7.77284516 9.75040783,8.00113409 9.47878788,8.19393939 L9.11515152,8.48484848 C8.93276931,8.6171924 8.79698486,8.80389603 8.72727273,9.01818182 C8.67725003,9.20802125 8.65279162,9.40368851 8.65454545,9.6 L7.32121212,9.6 C7.31905673,9.20580272 7.37626354,8.81352744 7.49090909,8.43636364 C7.65113545,8.13329474 7.88444337,7.87498955 8.16969697,7.68484848 L8.53333333,7.39393939 C8.64529915,7.31322476 8.74352779,7.21499612 8.82424242,7.1030303 C8.95197835,6.92691826 9.0199453,6.71452156 9.01818182,6.4969697 C9.02344543,6.24519087 8.946886,5.99849937 8.8,5.79393939 C8.65454545,5.58383838 8.38787879,5.47878788 8,5.47878788 C7.67515813,5.44856328 7.35952055,5.59709861 7.17575758,5.86666667 C7.01969243,6.10446896 6.93552096,6.38223482 6.93333333,6.66666667 L5.47878788,6.66666667 C5.51111111,5.71313131 5.84242424,5.04242424 6.47272727,4.65454545 C6.90914999,4.38564835 7.41490758,4.25077966 7.92727273,4.26666667 C8.59031772,4.24191962 9.24405057,4.42870044 9.79393939,4.8 C10.3006453,5.17049215 10.5838621,5.77346971 10.5454545,6.4 C10.5577741,6.7988912 10.438511,7.19075551 10.2060606,7.51515152 Z" id="Shape"></path>
            </g>
        </g>
    </g>
</svg>