<?xml version="1.0" encoding="utf-8"?>
<!-- Generator: Adobe Illustrator 19.0.1, SVG Export Plug-In . SVG Version: 6.00 Build 0)  -->
<svg version="1.1" id="Слой_1" xmlns="http://www.w3.org/2000/svg" xmlns:xlink="http://www.w3.org/1999/xlink" x="0px" y="0px"
	 viewBox="-283 369 44 56" style="enable-background:new -283 369 44 56;" xml:space="preserve">
<path d="M-276.7,369h15.9c5.6,0.4,9.1,5.3,13,8.7c3.3,3.4,7.9,6.1,8.8,11.1v29.9c-0.3,3.3-3.1,6-6.3,6.3h-31.4
	c-3.3-0.4-6.1-3-6.3-6.3v-43.4C-282.6,372-280,369.3-276.7,369 M-277.8,373.3c-1.4,0.7-1.1,2.4-1.2,3.6c0.1,13.7,0,27.5,0,41.2
	c-0.3,1.8,1.2,3.2,2.9,2.9c10.1,0,20.1,0,30.2,0c1.7,0.3,3.1-1.2,2.9-2.9c0-9,0-18.1,0-27.2c0.3-4.6-4.3-7-7-9.9
	c-3.1-2.5-5.5-6-9.1-7.8C-265.3,372.8-271.6,372.8-277.8,373.3z"/>
</svg>
