<?xml version="1.0" encoding="utf-8"?>
<!-- Generator: Adobe Illustrator 19.0.1, SVG Export Plug-In . SVG Version: 6.00 Build 0)  -->
<svg version="1.1" id="Слой_1" xmlns="http://www.w3.org/2000/svg" xmlns:xlink="http://www.w3.org/1999/xlink" x="0px" y="0px"
	 viewBox="-598 780 13.1 14.1" style="enable-background:new -598 780 13.1 14.1;" xml:space="preserve">
<path d="M-586.8,793l-1.2-0.8c-0.1-0.1-0.3-0.1-0.4,0l-1.5,1l-1.5-1c-0.1-0.1-0.3-0.1-0.4,0l-1.5,1l-1.5-1c-0.1-0.1-0.3-0.1-0.4,0
	l-1.1,0.8v-12.2h9.4L-586.8,793z M-585.4,780h-12.3c-0.2,0-0.3,0.2-0.3,0.4c0,0.2,0.2,0.4,0.3,0.4h0.7v12.9c0,0.1,0.1,0.3,0.2,0.3
	c0.1,0.1,0.2,0.1,0.4,0l1.5-1l1.5,1c0.1,0.1,0.3,0.1,0.4,0l1.5-1l1.5,1c0.1,0.1,0.3,0.1,0.4,0l1.5-1l1.5,1c0.1,0.1,0.2,0.1,0.4,0
	c0.1-0.1,0.2-0.2,0.2-0.3v-12.9h0.8c0.2,0,0.3-0.2,0.3-0.4C-585,780.2-585.2,780-585.4,780z"/>
<path d="M-594.6,785.7h3.6c0.2,0,0.3-0.2,0.3-0.4c0-0.2-0.1-0.4-0.3-0.4h-3.6c-0.2,0-0.3,0.2-0.3,0.4
	C-595,785.6-594.8,785.7-594.6,785.7L-594.6,785.7z"/>
<path d="M-594.6,787h2.7c0.2,0,0.3-0.2,0.3-0.4c0-0.2-0.1-0.4-0.3-0.4h-2.7c-0.2,0-0.3,0.2-0.3,0.4C-595,786.8-594.8,787-594.6,787
	L-594.6,787z"/>
<path d="M-589.3,785.7h0.9c0.2,0,0.3-0.2,0.3-0.4c0-0.2-0.1-0.4-0.3-0.4h-0.9c-0.2,0-0.3,0.2-0.3,0.4
	C-589.6,785.6-589.5,785.7-589.3,785.7L-589.3,785.7z"/>
<path d="M-589.3,787h0.9c0.2,0,0.3-0.2,0.3-0.4c0-0.2-0.1-0.4-0.3-0.4h-0.9c-0.2,0-0.3,0.2-0.3,0.4
	C-589.6,786.8-589.5,787-589.3,787L-589.3,787z"/>
<path d="M-594.6,782.8h3.6c0.2,0,0.3-0.2,0.3-0.4c0-0.2-0.1-0.4-0.3-0.4h-3.6c-0.2,0-0.3,0.2-0.3,0.4
	C-595,782.7-594.8,782.8-594.6,782.8L-594.6,782.8z"/>
<path d="M-594.6,784.1h2.7c0.2,0,0.3-0.2,0.3-0.4s-0.1-0.4-0.3-0.4h-2.7c-0.2,0-0.3,0.2-0.3,0.4C-595,783.9-594.8,784.1-594.6,784.1
	L-594.6,784.1z"/>
<path d="M-589.3,782.8h0.9c0.2,0,0.3-0.2,0.3-0.4c0-0.2-0.1-0.4-0.3-0.4h-0.9c-0.2,0-0.3,0.2-0.3,0.4
	C-589.6,782.7-589.5,782.8-589.3,782.8L-589.3,782.8z"/>
<path d="M-589.3,784.1h0.9c0.2,0,0.3-0.2,0.3-0.4s-0.1-0.4-0.3-0.4h-0.9c-0.2,0-0.3,0.2-0.3,0.4
	C-589.6,783.9-589.5,784.1-589.3,784.1L-589.3,784.1z"/>
<path d="M-594.6,788.6h3.6c0.2,0,0.3-0.2,0.3-0.4s-0.1-0.4-0.3-0.4h-3.6c-0.2,0-0.3,0.2-0.3,0.4C-595,788.5-594.8,788.6-594.6,788.6
	L-594.6,788.6z"/>
<path d="M-594.6,789.9h2.7c0.2,0,0.3-0.2,0.3-0.4c0-0.2-0.1-0.4-0.3-0.4h-2.7c-0.2,0-0.3,0.2-0.3,0.4
	C-595,789.7-594.8,789.9-594.6,789.9L-594.6,789.9z"/>
<path d="M-589.3,788.6h0.9c0.2,0,0.3-0.2,0.3-0.4s-0.1-0.4-0.3-0.4h-0.9c-0.2,0-0.3,0.2-0.3,0.4
	C-589.6,788.5-589.5,788.6-589.3,788.6L-589.3,788.6z"/>
<path d="M-589.3,789.9h0.9c0.2,0,0.3-0.2,0.3-0.4c0-0.2-0.1-0.4-0.3-0.4h-0.9c-0.2,0-0.3,0.2-0.3,0.4
	C-589.6,789.7-589.5,789.9-589.3,789.9L-589.3,789.9z"/>
</svg>
