<?xml version="1.0" encoding="utf-8"?>
<!-- Generator: Adobe Illustrator 19.0.1, SVG Export Plug-In . SVG Version: 6.00 Build 0)  -->
<svg version="1.1" id="Слой_1" xmlns="http://www.w3.org/2000/svg" xmlns:xlink="http://www.w3.org/1999/xlink" x="0px" y="0px"
	 viewBox="-590 774 20 20" style="enable-background:new -590 774 20 20;" xml:space="preserve">
<path d="M-579,779v4h4v2h-4v4h-2v-4h-4v-2h4v-4H-579z M-580,774c2.8,0,5.1,1,7.1,2.9c2,2,2.9,4.3,2.9,7.1s-1,5.1-2.9,7.1
	c-2,2-4.3,2.9-7.1,2.9c-2.8,0-5.1-1-7.1-2.9c-2-2-2.9-4.3-2.9-7.1c0-2.8,1-5.1,2.9-7.1C-585.1,775-582.8,774-580,774L-580,774z
	 M-580,792c2.2,0,4.1-0.8,5.7-2.4c1.6-1.6,2.4-3.5,2.4-5.6c0-2.2-0.8-4.1-2.4-5.7s-3.5-2.4-5.7-2.4s-4.1,0.8-5.7,2.4
	s-2.4,3.5-2.4,5.6c0,2.2,0.8,4.1,2.4,5.6C-584.1,791.2-582.2,792-580,792L-580,792z"/>
</svg>
