<?xml version="1.0" encoding="UTF-8"?>
<svg xmlns="http://www.w3.org/2000/svg" xmlns:xlink="http://www.w3.org/1999/xlink" version="1.1" x="0px" y="0px" viewBox="0 0 100 125" style="enable-background:new 0 0 100 100;" xml:space="preserve"><path d="M85.2875977,28.84375c0.9331055,0,1.796936-0.348999,2.4667969-0.9275513  c0.034668-0.0266113,0.0757446-0.0396729,0.1074219-0.0714722c0.0244751-0.0244751,0.0336304-0.0567017,0.0549927-0.0829468  c0.5170898-0.5028076,0.902771-1.1466675,1.0661011-1.8931274l0.9296875-4.2504883  c0.2758789-1.262207-0.1049805-2.5595703-1.0185547-3.4711914l-7.0483398-7.0410156  c-0.9316406-0.9301758-2.3051758-1.3115234-3.5795898-0.9882812l-4.0942383,1.0268555  c-1.7133789,0.4301758-2.9169922,2.0244141-2.8608398,3.7905273L71.642395,25.34021  c-10.786438-9.2398071-27.0875854-8.7626953-37.2947388,1.444458c-2.8442993,2.8442993-4.9813232,6.185791-6.3577881,9.9296265  c-3.6911011,1.3556519-7.0766602,3.5050659-9.9400635,6.3687134c-10.7158203,10.7158203-10.7158203,28.1513672,0,38.8671875  c5.3583984,5.3583984,12.3950195,8.0371094,19.4335938,8.0371094c7.0371094,0,14.0761719-2.6796875,19.4335938-8.0371094  c2.8498535-2.8493652,4.9884644-6.1976929,6.3652344-9.9516602c3.6258545-1.329834,7.0275269-3.4406128,9.9331055-6.3461914  c10.1582642-10.1587524,10.6793213-26.3532104,1.5772095-37.1398926l10.3739624,0.3293457  C85.2070312,28.8432617,85.2475586,28.84375,85.2875977,28.84375z M85.2299805,26.8427734l-8.1030273-0.2572632l5.5856934-2.4708862  l2.7200317,2.717041C85.3654175,26.8370972,85.2987061,26.8451538,85.2299805,26.8427734z M73.3100586,14.871582  c-0.0014038-0.0452271,0.0166626-0.0861816,0.0186768-0.1308594l2.7167969,2.7139282l-2.4753418,5.5836182L73.3100586,14.871582z   M82.3537598,20.9295044l-3.1582031-3.1548462l4.0866699-1.0197754L82.3537598,20.9295044z M81.1954346,22.598999  l-6.5216064,2.8848877l2.8880005-6.5145874L81.1954346,22.598999z M87.9584961,21.1904297l-0.9296875,4.2504883  c-0.0091553,0.0419312-0.0258789,0.0801392-0.0378418,0.1207886l-2.9609985-2.9578247l1.1811523-5.309021L87.480957,19.5625  C87.909668,19.9897461,88.0883789,20.5986328,87.9584961,21.1904297z M78.7529297,12.0571289  c0.5991211-0.1484375,1.2426758,0.0273438,1.6796875,0.4638672l2.3096313,2.307373l-5.1978149,1.296936l-2.9954834-2.9923096  c0.0386963-0.0126953,0.0698242-0.0389404,0.1097412-0.0490112L78.7529297,12.0571289z M55.5029297,80.5361328  c-9.9365234,9.9355469-26.1025391,9.9355469-36.0390625,0c-9.9360352-9.9360352-9.9360352-26.1030273,0-36.0390625  c4.8129883-4.8134766,11.2124023-7.4638672,18.0195312-7.4638672s13.206543,2.6503906,18.0195312,7.4638672  c5.024353,5.024353,7.7269897,11.9626465,7.4384155,19.0620728C61.680542,64.2278442,60.3347168,64.75,58.930481,65.1328125  c0.1045532-0.8668213,0.1759644-1.7404175,0.1759644-2.6162109c0-11.9228516-9.7001953-21.6230469-21.6230469-21.6230469  S15.8603516,50.59375,15.8603516,62.5166016s9.7001953,21.6230469,21.6230469,21.6230469  c7.5959473,0,14.6712646-4.036499,18.5652466-10.5498657c1.6045532-0.1316528,3.1984253-0.40448,4.7640381-0.8161011  C59.5458984,75.6630859,57.7686768,78.2703857,55.5029297,80.5361328z M64.9641724,62.3215332  c-0.0549316-7.1913452-2.9398804-14.1317139-8.0471802-19.2385254c-5.149353-5.1497803-11.9824219-8.0001221-19.2578125-8.0455322  c3.6464844-5.2383423,9.697876-8.4417725,16.1220703-8.4417725c10.8203125,0,19.6230469,8.8027344,19.6230469,19.6230469  C73.4042969,52.8831177,70.0578003,58.7733154,64.9641724,62.3215332z M34.4100342,43.1588135  c1.0039673-0.1589966,2.0253296-0.2652588,3.0733643-0.2652588c10.8203125,0,19.6230469,8.8027344,19.6230469,19.6230469  c0,1.026062-0.0890503,2.0523682-0.24646,3.0586548c-1.0056763,0.1595459-2.0288696,0.2660522-3.0787354,0.2660522  c-10.8198242,0-19.6225586-8.8027344-19.6225586-19.6225586C34.1586914,45.190979,34.2523804,44.1660156,34.4100342,43.1588135z   M26.3034058,46.4111328c0.0539551,7.1936646,2.9331055,14.1300659,8.0442505,19.2412109  c5.3143311,5.3143311,12.2816772,7.9893188,19.2620239,8.0325317c-3.6464233,5.2496338-9.6795044,8.4547729-16.1262817,8.4547729  c-10.8203125,0-19.6230469-8.8027344-19.6230469-19.6230469C17.8603516,55.850647,21.2080688,49.9591675,26.3034058,46.4111328z   M71.8012695,64.2382812c-9.9355469,9.9355469-26.1030273,9.9365234-36.0395508,0  c-5.02771-5.0281982-7.7246094-11.9611206-7.4364624-19.0634155c1.2606201-0.668396,2.6062012-1.1904297,4.0100708-1.5731201  c-0.1044922,0.8671265-0.1766357,1.7404175-0.1766357,2.6170044c0,11.9228516,9.699707,21.6225586,21.6225586,21.6225586  s21.6230469-9.699707,21.6230469-21.6225586S65.7041016,24.5957031,53.78125,24.5957031  c-7.5713501,0-14.6740723,4.0358276-18.5643311,10.536499c-1.6187134,0.1313477-3.2084351,0.4013062-4.7557373,0.807312  c1.2658691-2.880188,3.0403442-5.4801636,5.3005371-7.7407837c9.9365234-9.9345703,26.1040039-9.9355469,36.0395508,0  C81.7368164,38.1347656,81.7368164,54.3022461,71.8012695,64.2382812z"/></svg>