<?xml version="1.0" encoding="utf-8"?>
<!-- Generator: Adobe Illustrator 19.0.1, SVG Export Plug-In . SVG Version: 6.00 Build 0)  -->
<svg version="1.1" id="Слой_1" xmlns="http://www.w3.org/2000/svg" xmlns:xlink="http://www.w3.org/1999/xlink" x="0px" y="0px"
	 viewBox="-566 758 45.2 36" style="enable-background:new -566 758 45.2 36;" xml:space="preserve">
<path d="M-525.2,791.6h-4.4l-0.7-6.1l2.3,1.1c0.3,0.2,0.7,0.2,1.1,0l2.5-1.2L-525.2,791.6z M-524.9,770.2c-0.8,0.8-1.8,1.2-2.9,1.2
	c-2.2,0-4-1.9-4-4.1V767c1.3,0.8,3,1.3,4.6,1.3c0.7,0,1.2-0.5,1.2-1.2c0-0.7-0.5-1.2-1.2-1.2c-1.4,0-2.7-0.4-3.7-1.1
	c-0.6-0.4-0.9-1.1-0.9-1.8v-1.3c0-0.6,0.5-1.1,1.1-1.1h3.4c2,0,3.6,1.6,3.6,3.6v3.3C-523.6,768.4-524.1,769.4-524.9,770.2z
	 M-550.1,767.8c0,3.7-3,6.7-6.7,6.7h-0.2c1.7-1.4,3-3.2,3.7-5.3c0.2-0.6-0.1-1.3-0.7-1.5l0,0c-0.6-0.2-1.3,0.1-1.5,0.7
	c-1.1,3.2-3.8,5.5-6.9,6c2.7-2.3,4.2-5.7,4.2-9.2c0-2.2,1.8-4.1,4.1-4.1h0.1c1,0,2,0.4,2.8,1.1c0.7,0.7,1.1,1.7,1.1,2.8V767.8z
	 M-523.3,772l0.2-0.1c1.2-1.2,1.9-2.9,1.9-4.6V764c0-3.3-2.7-6-6-6h-3.4c-1.9,0-3.5,1.6-3.5,3.5v5.7c0,1.7,0.6,3.2,1.7,4.4
	c-0.8,0.3-1.6,0.7-2.2,1.4l-4.4,4.3c0,0,0,0-0.1,0.1c-0.5,0.6-1.4,0.7-2,0.1l-0.1-0.1l-0.1-0.1l-4.8-4.2c-0.6-0.7-1.5-1.1-2.4-1.2
	c0.6-1.2,0.9-2.6,0.9-4V765c0-1.7-0.7-3.3-1.9-4.5s-2.8-1.9-4.5-1.8h-0.1c-3.6,0-6.5,2.9-6.5,6.5c0,3-1.3,5.8-3.7,7.6l-1,0.8
	c-0.6,0.5-0.9,1.3-0.6,2.1c0.3,0.7,1,1.2,1.8,1.2h2.5c-0.2,0.4-0.4,0.9-0.5,1.3l-3.2,10.6c-0.4,1.3-0.2,2.8,0.6,3.9
	c0.6,0.8,1.5,1.3,2.4,1.3h15.1c0.9,0,1.8-0.5,2.4-1.3c0.8-1.1,1-2.5,0.6-3.9l-2.9-9.6c-0.2-0.6-0.9-1-1.5-0.7
	c-0.6,0.2-0.9,0.8-0.8,1.4l2.9,9.6c0.2,0.7,0,1.4-0.2,1.8c-0.1,0.1-0.3,0.3-0.5,0.3h-15.1c-0.2,0-0.4-0.2-0.5-0.3
	c-0.3-0.4-0.5-1.1-0.2-1.8l3.2-10.6c0.2-0.7,0.5-1.4,0.9-2h2.1c2.4,0,4.8-1,6.5-2.7h1.4c0.3,0,0.7,0.2,0.9,0.4l0.1,0.1l4.8,4.2
	c1.4,1.6,3.9,1.7,5.5,0.2c0.1-0.1,0.2-0.2,0.3-0.3l4.4-4.3c0,0,0,0,0.1-0.1c0.5-0.5,1.1-0.8,1.8-0.8h5.3c0.7,0,1.3,0.3,1.8,0.8
	s0.7,1.2,0.6,1.9l-0.7,6.1l-3.3,1.7l-3.1-1.6l-0.5-3.8c-0.1-0.7-0.7-1.1-1.3-1.1c-0.7,0.1-1.1,0.7-1.1,1.3l1.5,12.8
	c0.2,1.2,1.2,2.1,2.4,2.1h4.4c1.2,0,2.2-0.9,2.4-2.1l1.8-15.1C-520.8,774.9-521.7,773-523.3,772z"/>
</svg>
