<?xml version="1.0" encoding="utf-8"?>
<!-- Generator: Adobe Illustrator 19.0.1, SVG Export Plug-In . SVG Version: 6.00 Build 0)  -->
<svg version="1.1" id="Слой_1" xmlns="http://www.w3.org/2000/svg" xmlns:xlink="http://www.w3.org/1999/xlink" x="0px" y="0px"
	 viewBox="-570.6 751.4 39 43.1" style="enable-background:new -570.6 751.4 39 43.1;" xml:space="preserve">
<path d="M-554.7,752.1c5.2-2.2,11.5,0.9,13.2,6.2c2.7,6.4-2.2,15-9.5,14.7c-6.2,0.3-11.2-6-10.3-12
	C-560.9,757.2-558.4,753.5-554.7,752.1 M-553.8,755c-5.3,2-6.2,10-1.7,13.4c4,3.5,10.8,0.6,11.5-4.5
	C-542.4,758.4-548.4,752.5-553.8,755z"/>
<path d="M-564.7,776.3c5.4-1.6,11.1-0.6,16.6-0.9c4.4,0.1,9.6-0.8,13.1,2.5c4.4,4,3.3,10.7,2.9,16.1c-0.5,0.1-1.6,0.2-2.1,0.3
	c-2-4.4,1.2-10.6-2.9-14.3c-4-2.9-9.3-1.2-13.9-1.6c-4.6,0.4-10-1.2-14.1,1.6c-4.1,3.7-1.7,9.8-2.7,14.5c-0.6,0-1.9-0.1-2.6-0.1
	C-570.7,788.1-571.8,779.2-564.7,776.3z"/>
</svg>
