<svg version="1.1" xmlns="http://www.w3.org/2000/svg" xmlns:xlink="http://www.w3.org/1999/xlink" x="0px" y="0px"
	 viewBox="330 -191 1272 1174" style="enable-background:new 330 -191 1272 1174;" xml:space="preserve">
<style type="text/css">
	.st0{fill:#231F20;}
	.st1{fill:#393939;}
</style>
<g>
	<path class="st0" d="M573.4,540c1.8,0,3.6,0,5.5,0c23.8,65.2,47.8,130.3,71.5,195.4c7.9,1,15.7,1.9,23.6,2.9c0,0.6,0,1.8,0,2.5
		c-23.3,0-46.5,0-69.7,0c0-0.6,0-1.8-0.1-2.4c7.7-1,15.4-1.9,23.1-2.9c-8.8-24.2-17.8-48.3-26.6-72.5c-22.9,0-45.7,0-68.6,0
		c-7.8,20.9-15.8,41.9-23.6,62.8c-0.8,2.5-1.8,5.4-0.5,7.9c1.4,2.2,4.3,2.5,6.7,2.9c6.1,0.7,12.3,1,18.4,1.6c0,0.6,0,1.8-0.1,2.4
		c-20.3,0-40.6,0-60.9,0c0.1-0.6,0.2-1.7,0.3-2.3c6.6-1.1,13.4-1.1,20-2.1c2.7-0.5,5.5-1.3,7.3-3.4c2.5-2.9,3.5-6.6,4.9-10.1
		C527.7,661.9,550.6,601,573.4,540 M559.4,590.1c-8.5,22.7-17,45.5-25.5,68.2c21.7,0,43.3,0,65,0c-10.8-29-21.1-58.2-32.1-87.1
		C563.9,577.3,561.9,583.8,559.4,590.1z"/>
	<path class="st0" d="M359.5,544.6c23.1-0.2,46.1,0,69.2-0.1c0,0.6,0.1,1.9,0.1,2.5c-7.8,0.8-15.6,1.5-23.3,2.4
		c0,38.2,0,76.5,0,114.7c0,13.7,0.4,27.5-1.4,41.2c-1.3,9.4-4.3,18.9-10.8,26.1c-11.4,13.2-31.1,17.3-47.2,11.7
		c-7.4-2.7-14.6-8.4-16.1-16.6v-6c0.8-3.4,2.6-6.9,5.9-8.4c5.6-2.5,13.6-1.4,16.6,4.5c3.3,6.3-0.1,13.7,2,20.2
		c1.2,3.5,5.1,5.1,8.5,5.1c5.4,0.2,10.2-3.3,12.9-7.7c5.5-8.5,7-19,7.3-29c0-51.9,0-103.8,0-155.8c-7.6-0.9-15.3-1.2-22.8-2.4
		C360.2,546.3,359.8,545.1,359.5,544.6z"/>
	<path class="st0" d="M687.2,547c0-0.6,0.1-1.9,0.1-2.5c23.7,0,47.5,0,71.2,0c-0.1,0.6-0.3,1.7-0.4,2.3c-8.1,1.1-16.2,1.5-24.3,2.4
		c17.2,33,35.1,65.6,52.5,98.4c1.7,3.2,3.4,6.5,5.3,9.6c2.3-3.2,3.7-6.8,5.4-10.3c13.2-27.5,26.4-55,39.6-82.5
		c1.7-3.6,4.1-7.4,3.4-11.5c-0.4-2.3-2.8-3.5-4.9-3.9c-6.8-1.4-13.8-1-20.6-2.2c-0.1-0.6-0.4-1.7-0.5-2.3c20.4-0.1,40.8,0,61.3,0
		c-0.1,0.6-0.3,1.8-0.5,2.4c-7.2,1.2-14.7,0.8-21.8,2.6c-4.3,1.1-6.8,5.1-8.6,8.9c-16.4,34.3-32.8,68.6-49.2,102.9
		c-1.3,2.4-0.9,5.2-1,7.8c0.1,22.3,0,44.6,0,67c8.3,0.8,16.5,1.5,24.8,2.3c0,0.6,0,1.8,0,2.4c-23.8,0-47.6,0-71.5,0
		c0-0.6-0.1-1.8-0.1-2.4c8.2-0.9,16.4-1.5,24.6-2.3c0-23,0-46,0-69c0-1.5-0.1-3.1-0.8-4.4c-20.2-37.8-40.5-75.5-60.6-113.3
		C702.8,548.4,695,547.8,687.2,547z"/>
	<path class="st0" d="M1027,544.5c23.6-0.1,47.2-0.1,70.7,0c-0.1,0.6-0.3,1.7-0.4,2.3c-8.1,1.2-16.4,1.5-24.6,2.5
		c0,62.7,0,125.3,0,188c21.7-0.1,43.5,0.2,65.2-0.1c5.4,0.2,10.2-3.1,12-8.1c6.9-16.9,13.6-33.9,20.3-50.9c1.2,0.2,2.5,0.4,3.8,0.5
		c-2.4,20.7-4.8,41.5-7.1,62.2c-46.5-0.1-93.1,0-139.6,0c0-0.6-0.1-1.8-0.1-2.4c7.9-0.8,15.7-1.5,23.6-2.3c0-62.2,0-124.5,0-186.7
		c-7.8-0.9-15.6-1.3-23.3-2.5C1027.3,546.3,1027.1,545.1,1027,544.5z"/>
	<path class="st0" d="M1238.3,544.5c23.1-0.1,46.1-0.1,69.2,0c-0.1,0.6-0.3,1.7-0.4,2.3c-7.6,1.2-15.4,1.5-23,2.4
		c0,62.3,0,124.5,0,186.8c7.8,0.8,15.5,1.5,23.3,2.3c0,0.6,0,1.8,0,2.4c-22.9,0-45.8,0-68.7,0c0-0.6-0.1-1.8-0.1-2.4
		c7.8-0.9,15.6-1.5,23.3-2.3c0-62.3,0-124.5,0-186.7c-7.7-1-15.4-1.3-23.1-2.5C1238.6,546.3,1238.4,545.1,1238.3,544.5z"/>
	<path class="st0" d="M1373.5,544.5c16.3,0,32.6,0,48.9,0c15.9,38,31.9,76.1,47.8,114.2c7.6,17.7,14.6,35.7,22.6,53.2
		c21.3-55.7,41.8-111.6,62.9-167.4c15.4,0,30.9-0.1,46.3,0v2.2c-8.3,1.3-16.7,1.7-25,2.6c0,62.2,0,124.5,0,186.7
		c8.3,0.9,16.7,1.4,25,2.5v2.2c-23.5,0.2-47,0.1-70.5,0.1c0-0.6,0-1.8,0-2.4c7.8-0.8,15.5-1.5,23.3-2.3c0-34.7,0-69.4,0-104.1
		c-0.2-23.2,0.3-46.3-0.2-69.5c-0.7,1.5-1.4,3.1-2.1,4.7c-22.4,59.4-44.7,118.9-67.1,178.3c-0.7,0-2.2,0-3,0
		c-22.5-53.8-45.1-107.6-67.6-161.3c-3.3-7.3-5.7-14.9-9.6-21.8c-0.4,53.6,0,107.1-0.2,160.7c0.1,4.4,0.1,10.9,5.4,12.3
		c7.7,1.7,15.6,1.8,23.4,3c0,0.6-0.1,1.8-0.1,2.4c-20.8,0-41.6,0-62.4,0c0-0.6-0.1-1.8-0.1-2.4c6.4-0.8,12.8-1.4,19.3-2.1
		c2.9-0.4,6.5-0.8,8.1-3.6c1.8-3.6,1.6-7.7,1.7-11.6c-0.1-55.3,0-110.7,0-166c0.1-4.1-4.2-6.7-7.7-7.5c-6.3-1.1-12.7-0.3-19.1-0.5
		C1373.5,546.4,1373.5,545.1,1373.5,544.5z"/>
	<path class="st0" d="M665.8,912.8c10.6-1.4,21.9,0,31.1,5.8c-1.5,2.3-2.9,4.6-4.4,6.8c-8.1-4.9-18.2-6.9-27.5-4.5
		c-4,1-8.2,3.6-8.9,7.9c-0.9,3.5,1.3,6.9,4.4,8.5c10,5.5,22.3,5.7,31.5,12.7c7.6,5.5,8.2,17.3,3,24.6c-4.3,5.6-11.6,7.6-18.4,8.2
		h-8.9c-7.3-0.8-14.5-3.2-20.3-7.8c1.5-2.1,3-4.2,4.4-6.3c8.3,5.9,19,7.9,28.9,5.5c3.7-0.9,7.4-3.1,8.8-6.8
		c1.6-4.1,0.2-9.1-3.7-11.4c-10.3-6.3-23.4-6.2-33-14c-5.6-4.5-6.4-13-3.5-19.2C652.2,916.8,659.2,913.7,665.8,912.8z"/>
	<path class="st0" d="M1221.1,922c14.4-14.4,42-12.8,53.7,4.3c9.8,14.3,8.4,36-4.5,48c-5.3,5-12.5,7.7-19.7,8.7h-8.9
		c-9.4-1.1-18.6-5.7-24.1-13.6C1207.8,955.4,1208.9,934.3,1221.1,922 M1239.6,920.7c-5.3,1.2-10.2,4.1-13.6,8.2
		c-9.3,10.8-8.8,28.7,1.3,38.9c10,10.1,28.3,9.9,38.2-0.4c10.1-10.6,10-29.2-0.2-39.7C1258.8,921,1248.5,918.7,1239.6,920.7z"/>
	<path class="st0" d="M758.2,921.5c0-2.6,0-5.2,0.1-7.8c18.5,0.1,37,0,55.4,0.1c0,2.6,0,5.2,0,7.8c-7.9,0-15.8,0-23.7,0
		c0,20,0,40,0,60c-2.8,0-5.5,0-8.3,0c0-20,0-40,0-60C773.9,921.5,766.1,921.5,758.2,921.5z"/>
	<path class="st0" d="M877.8,913.8c2.7,0,5.3,0,8,0c0,12.1,0,24.2,0,36.3c0.1,5.2,0.3,10.7,2.8,15.4c5.7,11.7,23.5,13.2,32.3,4.4
		c4.2-4.5,5.7-10.8,5.7-16.8c0-13.1,0-26.2,0-39.3c2.7,0,5.5,0,8.2,0c0,11.7,0,23.5,0,35.2c0.1,8-0.6,16.6-5.5,23.3
		c-4.2,6.3-11.4,9.7-18.7,10.7h-7.9c-6-0.7-12.1-2.8-16.5-7.2c-5.8-5.6-8.4-13.9-8.5-21.8C877.7,940.6,877.8,927.2,877.8,913.8z"/>
	<path class="st0" d="M1006.8,913.8c9.8,0.2,19.6-0.4,29.3,0.4c11.4,1.1,22.7,7.8,27.3,18.5c5.4,12.7,3.8,29.3-6.5,39.2
		c-6.8,6.7-16.5,9.6-25.9,9.7c-8.1,0-16.2,0-24.3,0C1006.8,958.9,1006.8,936.3,1006.8,913.8 M1014.8,921.5c0,17.5,0,35,0,52.5
		c5.8-0.1,11.6,0.2,17.3-0.1c6.7-0.4,13.5-2.7,18.4-7.4c11.6-10.8,9.9-32.7-4.1-40.7C1036.9,919.7,1025.3,921.9,1014.8,921.5z"/>
	<path class="st0" d="M1134.8,913.8c2.7,0,5.3,0,8,0c0,22.6,0,45.1,0,67.7c-2.7,0-5.3,0-8,0C1134.8,958.9,1134.8,936.3,1134.8,913.8
		z"/>
</g>
<path class="st1" d="M912.5-191H1020c0,2.9,0,5.8,0,8.8c-11.3,0-22.5,0-33.8,0c0,24.8,0,49.6,0,74.4c15.3,2.9,30.3,8.6,43.1,17.6
	c13.6,9.1,23.5,22.7,30.8,37.1c7.5,14.8,10.9,31.7,8.8,48.2c-0.8,4.8-2.1,9.8-5.5,13.4c-3.9,4.2-10.4,4.3-15.6,2.9
	c-5.6-1.7-8.9-7.1-10.4-12.4c-3.6-12.7-1.4-25.9-2.6-38.8c-0.7-12.9-5.5-25.4-13.1-35.8c-8.6-11.6-21.7-19.1-35.5-22.6
	c0,47.1,0,94.2,0,141.3c22.4,10.2,44.3,22.6,61.4,40.5c12.6,13.2,21.6,30.2,23.3,48.5c1.5,18.7-1.6,38-10.3,54.7
	c-8.1,15.8-21.2,28.8-36.6,37.5c-14.7,8.3-31.4,12.6-48.1,14.2c-4.1,9.3-9.2,18.2-15.4,26.3c-19.6,26.1-50,44-82.5,47.5
	c-34.2,4.1-69.6-7.9-94.7-31.3c-22.2-20.5-37.6-50.1-36-80.8c0-7,2.2-14.4,7.7-19c6-5.4,15.5-6.5,22.4-2.4
	c7.1,4,11.1,12.5,10.2,20.6c-0.4,3.4-1.4,6.7-1.9,10.1c-3.1,19.7,0.1,40.6,10.5,57.8c7.1,11.9,17.5,21.5,29.1,28.9
	c3.7,2.4,8,3.4,12.2,4.6c14.8,3.8,30.4,4.6,45.5,1.9c14.3-2.2,27.9-9,37.8-19.7c11.7-12.5,18-29,21.6-45.5
	c-17.1-3.1-33.6-9.7-48.2-19.1c-10.7-6.9-21-15.1-28.2-25.7c-11.5-16.4-18.6-35.7-21-55.5c-1.1-8.3-0.6-17.1,3.3-24.7
	c2.4-4.8,6.8-8.9,12.2-9.5c7.5-1.2,14.9,3.8,17.7,10.6c3,6.5,2.5,14,1.8,21c-1.6,23.7,3.1,49,18.1,68.1c11.2,14.4,28.3,23.1,46,26.1
	c1.7-11.7,2.3-23.5,2.2-35.4c0-40.6,0-81.3,0-121.9c-14.5-6.5-28.8-13.8-41.6-23.4C891,37.7,879.2,25,872.2,9.7
	c-8-17.3-9.2-37.1-5.7-55.6c2.8-14.6,11.1-27.7,22.1-37.5c15.7-14.4,36.5-22.2,57.4-25c0.1-24.7,0-49.3,0-74c-11.2,0-22.3,0-33.5,0
	C912.5-185.2,912.5-188.1,912.5-191 M909.3-83.7c-13.5,11.5-19.4,30.5-17,47.8c1.4,11.4,6.4,22.1,13.6,30.9
	c10.7,13.1,25.2,22.5,40.1,30.2c0-41.4,0-82.8,0-124.2C932.9-96.7,919.5-92.5,909.3-83.7 M986.3,187c0.2,14.2-2.3,28.4-6.7,41.9
	c17-1.3,32.5-11.6,41.2-26.1c8.9-14.5,12.6-31.9,11.2-48.8c-1.9-18.5-10.6-36.2-24.1-49c-6.3-6.2-14.1-10.5-21.7-14.8
	C986.2,122.5,986.2,154.7,986.3,187z"/>
<path class="st1" d="M1142,197c3,0,6,0,9,0c0,37.8,0,75.5,0,113.3c-70.8,0-141.7,0-212.5,0c3.9-2.9,7.4-6.4,11.6-8.8
	c30-0.3,59.9-0.1,89.9-0.1c16.4,0.6,32.6-4.6,47.1-12.1c17.9-9.5,33.7-23.7,43.6-41.5C1139.4,232.4,1142.9,214.5,1142,197z"/>
</svg>
