<?xml version="1.0" encoding="utf-8"?>
<!-- Generator: Adobe Illustrator 19.0.1, SVG Export Plug-In . SVG Version: 6.00 Build 0)  -->
<svg version="1.1" id="Слой_1" xmlns="http://www.w3.org/2000/svg" xmlns:xlink="http://www.w3.org/1999/xlink" x="0px" y="0px"
	 viewBox="-290 379 30 35" style="enable-background:new -290 379 30 35;" xml:space="preserve">
<path d="M-285.9,402c0,0.4-0.3,0.7-0.7,0.7s-0.7-0.3-0.7-0.7c0-0.4,0.3-0.7,0.7-0.7C-286.2,401.3-285.9,401.6-285.9,402z"/>
<path d="M-288.6,383.8c0-0.4,0.3-0.7,0.7-0.7h0.7v0.7c0,1.1,0.9,2,2,2c1.1,0,2-0.9,2-2v-0.7h2.7v0.7c0,1.1,0.9,2,2,2
	c1.1,0,2-0.9,2-2v-0.7h2.7v0.7c0,1.1,0.9,2,2,2c1.1,0,2-0.9,2-2v-0.7h2.7v0.7c0,1.1,0.9,2,2,2c1.1,0,2-0.9,2-2v-0.7h0.7
	c0.4,0,0.7,0.3,0.7,0.7v5.2h-27.3V383.8z M-285.9,381.1c0-0.4,0.3-0.7,0.7-0.6c0.3,0,0.6,0.3,0.6,0.6v2.7c0,0.4-0.3,0.7-0.7,0.7
	c0,0,0,0,0,0c-0.4,0-0.7-0.3-0.7-0.7c0,0,0,0,0,0V381.1z M-279.1,381.1c0-0.4,0.3-0.7,0.7-0.6c0.3,0,0.6,0.3,0.6,0.6v2.7
	c0,0.4-0.3,0.7-0.7,0.7c0,0,0,0,0,0c-0.4,0-0.7-0.3-0.7-0.7c0,0,0,0,0,0V381.1z M-272.3,381.1c0-0.4,0.3-0.7,0.7-0.6
	c0.3,0,0.6,0.3,0.6,0.6v2.7c0,0.4-0.3,0.7-0.7,0.7l0,0c-0.4,0-0.7-0.3-0.7-0.7l0,0V381.1z M-265.5,381.1c0-0.4,0.3-0.7,0.7-0.6
	c0.3,0,0.6,0.3,0.6,0.6v2.7c0,0.4-0.3,0.7-0.7,0.7l0,0c-0.4,0-0.7-0.3-0.7-0.7l0,0V381.1z M-262,412.6H-288c-0.4,0-0.7-0.3-0.7-0.7
	v-21.6h27.3v21.6C-261.4,412.3-261.7,412.6-262,412.6L-262,412.6z M-290,383.8V412c0,1.1,0.9,2,2,2h25.9c1.1,0,2-0.9,2-2v-28.2
	c0-1.1-0.9-2-2-2h-0.7V381c0-1.1-0.9-2-2-2c-1.1,0-2,0.9-2,2v0.7h-2.7v-0.7c0-1.1-0.9-2.1-2-2.1c-1.1,0-2,0.9-2,2v0.7h-2.7v-0.7
	c0-1.1-0.9-2.1-2-2.1c-1.1,0-2,0.9-2,2v0.7h-2.7v-0.7c0-1.1-0.9-2.1-2-2.1c-1.1,0-2,0.9-2,2v0.7h-0.7
	C-289.1,381.7-290,382.7-290,383.8z"/>
<path d="M-286.6,404c-0.4,0-0.7,0.3-0.7,0.7c0,0,0,0,0,0v5.9c0,0.4,0.3,0.7,0.6,0.7c0.4,0,0.7-0.3,0.7-0.6c0,0,0,0,0-0.1v-5.9
	C-285.9,404.3-286.2,404-286.6,404C-286.6,404-286.6,404-286.6,404z"/>
</svg>
