<?xml version="1.0" encoding="utf-8"?>
<!-- Generator: Adobe Illustrator 19.0.1, SVG Export Plug-In . SVG Version: 6.00 Build 0)  -->
<svg version="1.1" id="Слой_1" xmlns="http://www.w3.org/2000/svg" xmlns:xlink="http://www.w3.org/1999/xlink" x="0px" y="0px"
	 viewBox="-560.3 744 50 50.1" style="enable-background:new -560.3 744 50 50.1;" xml:space="preserve">
<path d="M-557.2,780.7c0-3.3,2.7-6.1,6.1-6.1c3.3,0,6.1,2.7,6.1,6.1c0,3.3-2.7,6.1-6.1,6.1C-554.5,786.8-557.2,784.1-557.2,780.7
	L-557.2,780.7z M-521.5,751.5c0,0.5-0.4,1-1,1c-0.5,0-1-0.4-1-1V747c0-0.5,0.4-1,1-1c0.5,0,1,0.4,1,1V751.5z M-543.8,751.5
	c0,0.5-0.4,1-1,1c-0.5,0-1-0.4-1-1V747c0-0.5,0.4-1,1-1c0.5,0,1,0.4,1,1V751.5z M-514.9,748.3h-4.7v-1.4c0-1.6-1.3-2.9-2.9-2.9
	s-2.9,1.3-2.9,2.9v1.4h-16.4v-1.4c0-1.6-1.3-2.9-2.9-2.9c-1.6,0-2.9,1.3-2.9,2.9v1.4c-0.1,0-0.2,0-0.3,0h-3.9
	c-2.7,0-4.9,2.2-4.9,4.9v16.6c0,0.5,0.5,1,1,0.9c0.5,0,0.9-0.4,0.9-0.9v-11.5h35.2c0.5,0,1-0.5,0.9-1c0-0.5-0.4-0.9-0.9-0.9h-35.2
	v-3.2c0-1.6,1.3-2.9,2.9-2.9h3.9c0.1,0,0.2,0,0.3,0v1.3c0,1.6,1.3,2.9,2.9,2.9s2.9-1.3,2.9-2.9v-1.2h16.4v1.2c0,1.6,1.3,2.9,2.9,2.9
	c1.6,0,2.9-1.3,2.9-2.9v-1.2h4.7c1.6,0,2.9,1.3,2.9,2.9v37.1c0,1-0.8,1.8-1.8,1.8s-1.8-0.8-1.8-1.8v-2.5c0-0.5-0.4-1-1-1h-11.4
	c-0.5,0-1,0.5-0.9,1c0,0.5,0.4,0.9,0.9,0.9h10.4v1.5c0,0.6,0.2,1.2,0.4,1.8h-39.3c-1,0-1.8-0.8-1.8-1.8v-1.5h21.9c0.5,0,1-0.5,0.9-1
	c0-0.5-0.4-0.9-0.9-0.9h-9.8c1.8-1.5,2.8-3.7,2.8-6.1c0-4.4-3.6-8-8-8c-4.4,0-8,3.6-8,8c0,2.3,1,4.5,2.8,6.1h-2.6c-0.5,0-1,0.4-1,1
	v2.5c0,2,1.7,3.7,3.7,3.7h42.6c2,0,3.7-1.7,3.7-3.7v-37.1C-510,750.5-512.2,748.3-514.9,748.3L-514.9,748.3z"/>
<path d="M-514.3,756.7c-0.2-0.2-0.4-0.3-0.7-0.3s-0.5,0.1-0.7,0.3s-0.3,0.4-0.3,0.7c0,0.3,0.1,0.5,0.3,0.7s0.4,0.3,0.7,0.3
	s0.5-0.1,0.7-0.3s0.3-0.4,0.3-0.7S-514.1,756.9-514.3,756.7L-514.3,756.7z"/>
<path d="M-530.8,787.1c-0.4-0.4-1-0.4-1.4,0c-0.2,0.2-0.3,0.4-0.3,0.7c0,0.3,0.1,0.5,0.3,0.7c0.4,0.4,1,0.4,1.4,0
	c0.2-0.2,0.3-0.4,0.3-0.7C-530.5,787.5-530.7,787.3-530.8,787.1L-530.8,787.1z"/>
<path d="M-537.9,779.2c-1,0-1.7-0.8-1.7-1.8c0-0.9,0.8-1.7,1.7-1.7c1,0,1.7,0.8,1.7,1.8C-536.2,778.4-537,779.1-537.9,779.2z
	 M-537.9,773.7c-2,0-3.7,1.7-3.7,3.7s1.7,3.7,3.7,3.7s3.7-1.7,3.7-3.7S-535.9,773.7-537.9,773.7L-537.9,773.7z"/>
<g>
	<path d="M-528.8,779.2c-1,0-1.8-0.8-1.8-1.8s0.8-1.8,1.8-1.8s1.8,0.8,1.8,1.8S-527.8,779.2-528.8,779.2L-528.8,779.2z
		 M-528.8,773.7c-2,0-3.7,1.7-3.7,3.7s1.7,3.7,3.7,3.7s3.7-1.7,3.7-3.7S-526.7,773.7-528.8,773.7L-528.8,773.7z"/>
</g>
<g>
	<path d="M-519.7,779.2c-1,0-1.8-0.8-1.8-1.8s0.8-1.8,1.8-1.8s1.8,0.8,1.8,1.8S-518.7,779.2-519.7,779.2L-519.7,779.2z
		 M-519.7,773.7c-2,0-3.7,1.7-3.7,3.7s1.7,3.7,3.7,3.7s3.7-1.7,3.7-3.7S-517.6,773.7-519.7,773.7L-519.7,773.7z"/>
</g>
<g>
	<path d="M-547,769c-1,0-1.8-0.8-1.8-1.8s0.8-1.8,1.8-1.8s1.8,0.8,1.8,1.8C-545.3,768.2-546,769-547,769L-547,769z M-547,763.5
		c-2,0-3.7,1.7-3.7,3.7s1.7,3.7,3.7,3.7s3.7-1.7,3.7-3.7S-545,763.5-547,763.5L-547,763.5z"/>
</g>
<g>
	<path d="M-528.8,769c-1,0-1.8-0.8-1.8-1.8s0.8-1.8,1.8-1.8s1.8,0.8,1.8,1.8S-527.8,769-528.8,769L-528.8,769z M-528.8,763.5
		c-2,0-3.7,1.7-3.7,3.7s1.7,3.7,3.7,3.7s3.7-1.7,3.7-3.7S-526.7,763.5-528.8,763.5L-528.8,763.5z"/>
</g>
<g>
	<path d="M-519.7,769c-1,0-1.8-0.8-1.8-1.8s0.8-1.8,1.8-1.8s1.8,0.8,1.8,1.8S-518.7,769-519.7,769L-519.7,769z M-519.7,763.5
		c-2,0-3.7,1.7-3.7,3.7s1.7,3.7,3.7,3.7s3.7-1.7,3.7-3.7S-517.6,763.5-519.7,763.5L-519.7,763.5z"/>
</g>
<path d="M-537.9,769c-1,0-1.7-0.8-1.7-1.8c0-0.9,0.8-1.7,1.7-1.7c1,0,1.7,0.8,1.7,1.8C-536.2,768.2-537,769-537.9,769z
	 M-537.9,763.5c-2,0-3.7,1.7-3.7,3.7s1.7,3.7,3.7,3.7s3.7-1.7,3.7-3.7S-535.9,763.5-537.9,763.5L-537.9,763.5z"/>
<path d="M-547.7,778.3c-0.4-0.4-1-0.4-1.4,0l-3.2,3.2l-1.1-1.1c-0.4-0.4-1-0.3-1.4,0.1c-0.3,0.4-0.3,0.9,0,1.3l1.8,1.8
	c0.4,0.4,1,0.4,1.4,0l0,0l3.9-3.9C-547.3,779.3-547.3,778.7-547.7,778.3L-547.7,778.3z"/>
</svg>
