<?xml version="1.0" encoding="utf-8"?>
<!-- Generator: Adobe Illustrator 19.0.1, SVG Export Plug-In . SVG Version: 6.00 Build 0)  -->
<svg version="1.1" id="Слой_1" xmlns="http://www.w3.org/2000/svg" xmlns:xlink="http://www.w3.org/1999/xlink" x="0px" y="0px"
	 viewBox="-595.8 778 14.9 15.1" style="enable-background:new -595.8 778 14.9 15.1;" xml:space="preserve">
<path d="M-589,789.9L-589,789.9l0.2,0.1c0,0,0.1,0.1,0.2,0.1s0.1,0,0.1,0h0.1c0.1,0,0.1,0,0.1-0.1l0.1-0.1c0,0,0.1,0,0.1-0.1l3-3
	c0.1-0.1,0.2-0.3,0.2-0.5c0-0.2-0.1-0.4-0.2-0.5c-0.1-0.1-0.3-0.2-0.5-0.2c-0.2,0-0.4,0.1-0.5,0.2l-1.7,1.8v-8.8
	c0-0.2-0.1-0.4-0.2-0.6c-0.1-0.1-0.3-0.2-0.5-0.2c-0.2,0-0.4,0.1-0.5,0.2c-0.1,0.1-0.2,0.3-0.2,0.6v8.8l-1.7-1.8
	c-0.1-0.1-0.3-0.2-0.5-0.2c-0.2,0-0.4,0.1-0.5,0.2c-0.1,0.1-0.2,0.3-0.2,0.5c0,0.2,0.1,0.4,0.2,0.5L-589,789.9z M-581.8,787.7
	c-0.2,0-0.4,0.1-0.5,0.2c-0.1,0.1-0.2,0.3-0.2,0.6v2.3c0,0.2-0.1,0.4-0.2,0.5s-0.3,0.2-0.5,0.2h-10.5c-0.2,0-0.4-0.1-0.5-0.2
	s-0.2-0.3-0.2-0.5v-2.3c0-0.2-0.1-0.4-0.2-0.6c-0.1-0.1-0.3-0.2-0.5-0.2s-0.4,0.1-0.5,0.2c-0.1,0.1-0.2,0.3-0.2,0.6v2.3
	c0,0.6,0.2,1.2,0.6,1.6c0.4,0.4,1,0.7,1.6,0.7h10.5c0.6,0,1.2-0.2,1.6-0.7c0.4-0.4,0.6-1,0.6-1.6v-2.3c0-0.2-0.1-0.4-0.2-0.6
	C-581.4,787.8-581.6,787.7-581.8,787.7L-581.8,787.7z"/>
</svg>
