<?xml version="1.0" encoding="utf-8"?>
<!-- Generator: Adobe Illustrator 19.0.1, SVG Export Plug-In . SVG Version: 6.00 Build 0)  -->
<svg version="1.1" id="Слой_1" xmlns="http://www.w3.org/2000/svg" xmlns:xlink="http://www.w3.org/1999/xlink" x="0px" y="0px"
	 viewBox="-297 387 17 20" style="enable-background:new -297 387 17 20;" xml:space="preserve">
<path d="M-281.2,391.8c0,0.7-0.6,1.2-1.3,1.2h-12.2c-0.7,0-1.3-0.5-1.3-1.2v-0.1c0-0.7,0.6-1.2,1.3-1.2h12.2c0.7,0,1.3,0.5,1.3,1.2
	L-281.2,391.8L-281.2,391.8z M-282.7,404.7c0,0.7-0.6,1.2-1.3,1.2h-9.1c-0.7,0-1.3-0.5-1.3-1.2v-10.6h11.7L-282.7,404.7z
	 M-288.5,388.1c0.8,0,1.5,0.6,1.7,1.3h-3.3C-290,388.6-289.3,388.1-288.5,388.1L-288.5,388.1z M-282.4,389.4h-3.3
	c-0.2-1.3-1.4-2.4-2.8-2.4c-1.5,0-2.7,1-2.8,2.4h-3.3c-1.3,0-2.4,1-2.4,2.3v0.1c0,1,0.6,1.8,1.5,2.1v10.8c0,1.3,1.1,2.3,2.4,2.3h9.1
	c1.3,0,2.4-1,2.4-2.3v-10.8c0.9-0.3,1.5-1.2,1.5-2.1v-0.1C-280,390.4-281.1,389.4-282.4,389.4L-282.4,389.4z"/>
<path d="M-291.6,404.5c0.3,0,0.6-0.2,0.6-0.5v-6.1c0-0.3-0.3-0.5-0.6-0.5c-0.3,0-0.6,0.2-0.6,0.5v6.1
	C-292.1,404.3-291.9,404.5-291.6,404.5L-291.6,404.5z"/>
<path d="M-288.5,404.5c0.3,0,0.6-0.2,0.6-0.5v-6.1c0-0.3-0.3-0.5-0.6-0.5c-0.3,0-0.6,0.2-0.6,0.5v6.1
	C-289.1,404.3-288.8,404.5-288.5,404.5L-288.5,404.5z"/>
<path d="M-285.5,404.5c0.3,0,0.6-0.2,0.6-0.5v-6.1c0-0.3-0.3-0.5-0.6-0.5c-0.3,0-0.6,0.2-0.6,0.5v6.1
	C-286,404.3-285.8,404.5-285.5,404.5L-285.5,404.5z"/>
</svg>
