<?xml version="1.0" standalone="no"?>
<!DOCTYPE svg PUBLIC "-//W3C//DTD SVG 20010904//EN"
 "http://www.w3.org/TR/2001/REC-SVG-20010904/DTD/svg10.dtd">
<svg version="1.0" xmlns="http://www.w3.org/2000/svg"
 width="700.000000pt" height="700.000000pt" viewBox="0 0 700.000000 700.000000"
 preserveAspectRatio="xMidYMid meet">
<metadata>
Created by potrace 1.11, written by Peter Selinger 2001-2013
</metadata>
<g transform="translate(0.000000,700.000000) scale(0.100000,-0.100000)"
fill="#000000" stroke="none">
<path d="M3110 6125 l0 -45 180 0 180 0 0 -389 c0 -363 -1 -390 -17 -395 -10
-2 -45 -10 -78 -16 -222 -42 -441 -160 -576 -308 -113 -125 -172 -265 -188
-445 -41 -470 202 -823 747 -1085 l113 -54 -5 -792 c-2 -435 -7 -810 -11 -833
-7 -41 -8 -42 -39 -36 -68 12 -184 56 -247 93 -209 123 -332 311 -386 589 -12
64 -16 134 -15 276 2 223 -7 264 -68 319 -100 90 -223 56 -280 -77 -75 -173
12 -544 189 -809 142 -212 468 -415 768 -479 61 -12 61 -3 12 -153 -99 -300
-282 -480 -554 -543 -121 -28 -358 -25 -485 6 -117 29 -166 53 -263 130 -163
130 -270 302 -312 503 -20 92 -19 285 1 389 13 69 14 93 4 138 -13 58 -61 121
-114 148 -46 24 -132 21 -183 -5 -85 -44 -123 -128 -123 -272 0 -472 370 -938
868 -1094 241 -76 513 -76 754 0 325 102 619 356 767 663 29 59 39 71 59 71
41 0 216 39 298 66 332 111 572 366 658 701 22 84 34 261 26 359 -32 353 -306
660 -804 900 l-96 47 0 745 0 745 38 -6 c20 -4 75 -25 121 -48 109 -54 220
-162 273 -264 68 -132 79 -187 88 -420 11 -273 23 -326 89 -390 27 -25 41 -30
94 -33 107 -6 157 47 178 190 29 205 -55 479 -211 686 -135 179 -331 306 -569
369 l-101 26 0 394 0 393 180 0 180 0 0 45 0 45 -570 0 -570 0 0 -45z m360
-1590 l0 -655 -42 21 c-102 52 -248 158 -328 238 -168 170 -237 375 -195 582
45 227 193 378 440 448 39 11 82 20 98 20 l27 1 0 -655z m580 -1441 c25 -18
70 -59 101 -91 249 -263 300 -637 131 -968 -45 -88 -163 -208 -247 -252 -61
-32 -191 -70 -202 -60 -3 4 2 33 11 66 43 155 46 200 46 814 l0 588 58 -32
c31 -18 77 -47 102 -65z"/>
<path d="M5546 1958 c-16 -235 -84 -414 -220 -583 -167 -208 -448 -372 -708
-415 -37 -6 -279 -10 -587 -10 l-524 0 -54 -41 c-29 -23 -53 -43 -53 -45 0 -2
504 -4 1120 -4 l1120 0 0 600 0 600 -44 0 -43 0 -7 -102z"/>
</g>
</svg>
